<svg width="582" height="930" xmlns="http://www.w3.org/2000/svg">

 <metadata id="metadata7">image/svg+xml</metadata>
 <g>
  <title>background</title>
  <rect fill="none" id="canvas_background" height="402" width="582" y="-1" x="-1"/>
 </g>
 <g>
  <title>Layer 1</title>
  <g id="layer1">
   <path fill="#87CEFA" fill-rule="nonzero" id="path2985" d="m-0.000003,858.448971l288.57143,-682.11298l294.28572,679.605206c-194.28572,88.161536 -388.57143,107.892324 -582.85715,2.507775z"/>
   <path fill="#fffcc2" fill-rule="nonzero" d="m357.060197,501.809546c-2.14827,2.14827 -51.68972,-26.95201 -54.69043,-26.47675c-3.00072,0.47527 -41.12495,43.46044 -43.83194,42.08116c-2.70698,-1.37927 9.65989,-57.48848 8.28061,-60.19546c-1.37927,-2.70698 -54.04164,-25.68214 -53.56637,-28.68285c0.47527,-3.00072 57.65986,-8.57782 59.80814,-10.7261c2.14827,-2.14827 7.72538,-59.33287 10.72609,-59.80813c3.00071,-0.47527 25.97587,52.18709 28.68285,53.56637c2.70698,1.37927 58.81619,-10.98759 60.19546,-8.28061c1.37928,2.70698 -41.60589,40.83122 -42.08115,43.83193c-0.47527,3.00072 28.62502,52.54217 26.47674,54.69044z" id="path3755"/>
   <path fill="#c2f0ff" fill-rule="nonzero" id="path3757" d="m166.758071,759.370384c-1.629106,0.766352 -23.406644,-25.40601 -25.175068,-25.743586c-1.768432,-0.337573 -31.655418,15.972602 -32.887689,14.66004c-1.232267,-1.312554 16.929505,-30.111932 16.70408,-31.898121c-0.22542,-1.786188 -24.972907,-25.170287 -24.105379,-26.747843c0.867529,-1.577562 33.869652,6.795815 35.498766,6.02946c1.629106,-0.766352 16.221312,-31.528691 17.989737,-31.191115c1.768427,0.337571 4.003096,34.311974 5.235361,35.624534c1.232267,1.312554 34.99823,5.684485 35.22365,7.470673c0.225425,1.78619 -31.395604,14.410154 -32.263126,15.987712c-0.867529,1.577562 5.40878,35.041898 3.779669,35.808247z"/>
   <path fill="#fffcc2" fill-rule="nonzero" d="m290.856786,801.967439c-2.788922,-0.428783 -8.209231,-53.515797 -10.213481,-55.501982c-2.004263,-1.986186 -55.138198,-6.925409 -55.592227,-9.710344c-0.454031,-2.784923 48.359764,-24.344732 49.629384,-26.864658c1.269625,-2.519919 -10.452181,-54.579611 -7.94386,-55.872002c2.508329,-1.292397 38.097206,38.469928 40.886141,38.898713c2.788922,0.428783 48.678391,-26.806643 50.68264,-24.820458c2.004257,1.986179 -24.814388,48.120457 -24.360364,50.905385c0.454031,2.784923 40.537083,38.012196 39.267457,40.532115c-1.26962,2.519926 -53.433345,-8.729848 -55.941661,-7.437449c-2.508329,1.292397 -23.625101,50.299471 -26.414029,49.87068z" id="path3759"/>
   <path fill="#c7ffc2" fill-rule="nonzero" id="path3761" d="m212.954763,594.96598c-0.664589,0.973027 -21.636232,-6.562017 -22.745828,-6.165459c-1.109599,0.396562 -12.554759,19.517102 -13.685537,19.185721c-1.130773,-0.331378 -0.445112,-22.605057 -1.165149,-23.537801c-0.720033,-0.932745 -22.4415,-5.90917 -22.475766,-7.087002c-0.034266,-1.177836 21.361138,-7.408675 22.02573,-8.381707c0.664589,-0.973027 -1.314851,-23.169168 -0.205255,-23.565726c1.109595,-0.396562 13.647024,18.026241 14.777798,18.357623c1.130773,0.331378 21.628879,-8.410163 22.348912,-7.477419c0.720037,0.932744 -12.926813,18.549507 -12.892544,19.727338c0.034266,1.177836 14.682231,17.971403 14.017639,18.944431z"/>
   <path fill="#c2fdff" fill-rule="nonzero" d="m466.342409,601.344739c0.117254,1.796534 -32.207761,12.489853 -33.16888,14.012198c-0.961118,1.522353 3.284905,35.304375 1.612526,35.971052c-1.672371,0.666677 -21.831302,-26.771829 -23.576143,-27.215472c-1.744838,-0.443647 -32.561364,14.03378 -33.712199,12.649271c-1.15084,-1.384513 18.715276,-29.035752 18.598022,-30.832294c-0.117254,-1.796534 -23.408932,-26.63102 -22.447813,-28.153365c0.961115,-1.522349 33.397978,8.826743 35.070353,8.16007c1.672371,-0.666677 18.093849,-30.492656 19.838687,-30.049009c1.744842,0.443643 1.925811,34.490981 3.076651,35.875485c1.15084,1.384513 34.591546,7.785525 34.708796,9.582064z" id="path3763"/>
   <path fill="#c2f0ff" fill-rule="nonzero" id="path3765" d="m486.230383,823.274415c-0.23244,1.785288 -34.015317,6.024493 -35.252734,7.332194c-1.237418,1.30771 -3.605572,35.273068 -5.375318,35.603691c-1.769737,0.330624 -16.240943,-30.488824 -17.867028,-31.26157c-1.626081,-0.77275 -34.660864,7.470872 -35.522181,5.889917c-0.86132,-1.58096 23.977864,-24.86762 24.210305,-26.652916c0.23244,-1.785288 -17.816018,-30.655813 -16.578601,-31.963515c1.237413,-1.307706 31.060079,15.119784 32.829819,14.789165c1.769737,-0.330624 23.649961,-26.417207 25.276042,-25.644457c1.626085,0.772747 -4.781678,34.212163 -3.920357,35.793114c0.86132,1.58096 32.432497,14.329085 32.200052,16.114376z"/>
   <path fill="#c7ffc2" fill-rule="nonzero" d="m179.272807,878.058495c-1.17826,-0.012811 -6.549441,-21.640042 -7.495142,-22.342973c-0.945706,-0.70293 -23.2032,0.388255 -23.55512,-0.7363c-0.35192,-1.12455 18.557018,-12.916029 18.933304,-14.032664c0.376288,-1.116632 -7.539434,-21.947577 -6.57867,-22.629776c0.960767,-0.682201 18.018308,13.657499 19.196573,13.67031c1.17826,0.012811 18.543572,-13.952603 19.489273,-13.249672c0.945703,0.702928 -7.421088,21.356828 -7.069172,22.48138c0.35192,1.12455 18.999993,13.324396 18.623705,14.441027c-0.376286,1.116635 -22.604794,-0.458252 -23.565555,0.223949c-0.960767,0.682201 -6.800933,22.187532 -7.979196,22.174717z" id="path3769"/>
   <path fill="#c7ffc2" fill-rule="nonzero" id="path3771" d="m434.016826,737.414499c-1.06179,-0.510943 3.238703,-22.376269 2.680023,-23.413736c-0.558684,-1.03747 -21.181041,-9.481707 -21.023215,-10.649424c0.157823,-1.167712 22.281913,-3.834456 23.09596,-4.68639c0.814048,-0.85193 2.472339,-23.074374 3.631671,-23.285116c1.159336,-0.210742 10.532276,20.006445 11.59407,20.517391c1.06179,0.510943 22.709028,-4.77904 23.267707,-3.741573c0.558683,1.037466 -15.772606,16.199121 -15.930433,17.366835c-0.157823,1.167712 11.562613,20.120766 10.748565,20.972697c-0.814047,0.851934 -20.280284,-9.994837 -21.439615,-9.784092c-1.159336,0.210742 -15.562942,17.214357 -16.624733,16.70341z"/>
   <path fill="#c7ffc2" fill-rule="nonzero" d="m296.636086,569.729189c-1.06179,-0.510943 3.238703,-22.376269 2.680023,-23.413736c-0.558684,-1.03747 -21.181041,-9.481707 -21.023215,-10.649424c0.157823,-1.167712 22.281913,-3.834456 23.09596,-4.68639c0.814048,-0.85193 2.472339,-23.074374 3.631671,-23.285116c1.159336,-0.210742 10.532276,20.006445 11.59407,20.517391c1.06179,0.510943 22.709028,-4.77904 23.267707,-3.741573c0.558683,1.037466 -15.772606,16.199121 -15.930433,17.366835c-0.157823,1.167712 11.562613,20.120766 10.748565,20.972697c-0.814047,0.851934 -20.280284,-9.994837 -21.439615,-9.784092c-1.159336,0.210742 -15.562942,17.214357 -16.624733,16.70341z" id="path3773"/>
   <path stroke="null" transform="rotate(9 221.74999999999972,87.60938262939452) " id="svg_1" d="m171.511893,9.693998l-28.64641,85.086786c0.427558,0.133162 103.041563,7.437729 157.769032,70.743976c-22.233034,-66.958531 -129.122622,-155.830762 -129.122622,-155.830762z" stroke-opacity="null" stroke-width="null" fill="#71c0b8"/>
   <path stroke="null" transform="rotate(2.5077106952667236 355.7311706542963,90.55468749999919) " id="svg_3" d="m292.826083,181.605846c0,0 -3.647999,-128.248356 51.679988,-182.102316c0.608,0.284112 74.783983,31.452928 74.175983,31.168838c0.608,0.28409 -85.72798,16.607278 -125.855971,150.933478z" stroke-opacity="null" stroke-width="null" fill="#8b3135"/>
   <path transform="rotate(8.638540267944336 414.24999999999983,161.91120910644545) " stroke="null" id="svg_5" d="m291.5,196.109376c46.205214,-18.863866 138.058952,-38.773606 222.119039,-0.114398l23.380952,-65.890066c-140.842398,-12.512356 -174.800447,26.223117 -245.499991,66.004464z" stroke-opacity="null" stroke-width="null" fill="#fffcbe"/>
   <path stroke="null" transform="rotate(-27 171.74999999999991,168.609375) " id="svg_6" d="m108.135622,107.354016l-36.273729,66.893363c0.541399,0.10469 130.477145,5.84738 199.776209,55.617361c-28.152744,-52.641326 -163.50248,-122.510724 -163.50248,-122.510724z" stroke-opacity="null" stroke-width="null" fill="#005fbf"/>
  </g>
 </g>
</svg>